<?xml version="1.0" encoding="UTF-8" standalone="no"?>
<!-- Created with Inkscape (http://www.inkscape.org/) -->

<svg
   width="11.417229mm"
   height="10.605965mm"
   viewBox="0 0 11.417229 10.605965"
   version="1.1"
   id="svg5"
   xml:space="preserve"
   xmlns:inkscape="http://www.inkscape.org/namespaces/inkscape"
   xmlns:sodipodi="http://sodipodi.sourceforge.net/DTD/sodipodi-0.dtd"
   xmlns="http://www.w3.org/2000/svg"
   xmlns:svg="http://www.w3.org/2000/svg"><sodipodi:namedview
     id="namedview7"
     pagecolor="#505050"
     bordercolor="#eeeeee"
     borderopacity="1"
     inkscape:showpageshadow="0"
     inkscape:pageopacity="0"
     inkscape:pagecheckerboard="0"
     inkscape:deskcolor="#505050"
     inkscape:document-units="mm"
     showgrid="false" /><defs
     id="defs2" /><g
     inkscape:label="Layer 1"
     inkscape:groupmode="layer"
     id="layer1"
     transform="translate(-113.01628,-83.993223)"><path
       style="fill:#030303;stroke:none;stroke-width:0.0117593"
       d="m 119.40062,83.993228 c 0.007,0.103358 0.077,0.191488 0.12211,0.282222 0.0658,0.132304 0.12945,0.333117 0.10404,0.48213 -0.0651,0.381611 -0.64794,0.275813 -0.91994,0.310868 -0.15781,0.02033 -0.3304,0.07586 -0.45202,-0.0654 -0.15659,-0.181904 -0.0931,-0.495042 -0.003,-0.692315 0.0255,-0.05581 0.12105,-0.152035 0.12047,-0.209128 -9.3e-4,-0.09116 -0.19885,-0.0017 -0.23012,0.01683 -0.22202,0.131255 -0.4529,0.38629 -0.48998,0.650908 -0.0189,0.135126 0.0521,0.251437 0.003,0.388056 -0.0708,0.196568 -0.27342,0.292464 -0.39916,0.446852 -0.0579,0.07106 -0.10749,0.154893 -0.12114,0.246944 -0.0105,0.0707 0.012,0.149872 -0.0336,0.211302 -0.10503,0.14157 -0.32553,0.11617 -0.476,0.164994 0.11539,0.11811 0.23012,-0.05454 0.337,0.01384 0.0579,0.03702 -0.0151,0.127047 -0.0399,0.162548 -0.0918,0.131363 -0.26414,0.262149 -0.2971,0.423334 0.0653,-0.01077 0.17318,-0.08644 0.22937,-0.03095 0.0629,0.0621 0.0457,0.198496 0.036,0.277895 -0.0243,0.199296 -0.064,0.410445 -0.0382,0.611481 0.0187,0.14618 0.13297,0.247486 0.16091,0.388056 -0.12533,-0.09707 -0.25167,-0.252942 -0.28722,-0.411574 -0.0194,-0.08679 0.0241,-0.215806 -0.0415,-0.28782 -0.10141,-0.11143 -0.24419,0.153423 -0.25926,0.229024 l 0.11759,-0.08231 h 0.0118 c 0.16329,0.308539 0.24931,0.91821 0.65852,0.999537 v 0.01176 c -0.34733,-0.04734 -0.85673,-0.170874 -1.11172,-0.427284 -0.10136,-0.10193 -0.16697,-0.245698 -0.23167,-0.372345 -0.0368,-0.07203 -0.0648,-0.158762 -0.13827,-0.199908 l -0.0235,0.199908 c -0.30785,-0.209186 -0.35884,-0.637294 -0.39623,-0.976019 -0.009,-0.08206 0.0428,-0.269252 -0.005,-0.333798 -0.0861,-0.115323 -0.14071,0.138277 -0.14602,0.180928 -0.0281,0.226236 0.0421,0.449685 0.0772,0.670277 h -0.0118 c -0.16591,-0.340195 -0.3175,-0.609647 -0.3175,-0.999537 -0.13719,0.03912 -0.14091,0.173391 -0.12935,0.293982 0.0245,0.255764 0.15055,0.476379 0.29398,0.682037 -0.2114,-0.125848 -0.39169,-0.332893 -0.56445,-0.505648 -0.0897,-0.08968 -0.18115,-0.20721 -0.30574,-0.246945 0.0204,0.197815 0.23208,0.473757 0.38806,0.587963 v 0.01176 c -0.139,0.08223 -0.2631,0.196697 -0.38806,0.298485 -0.3562,0.290183 -0.71208,0.633271 -0.91319,1.053829 -0.11364,0.237643 -0.16325,0.483706 -0.21119,0.740834 -0.0567,0.3042 -0.11919,0.640726 0.0308,0.928981 h 0.0118 l 0.15287,-0.9525 h 0.0118 c -0.008,0.161278 -0.0549,0.31964 -0.0584,0.48213 -0.005,0.239665 0.0517,0.490643 0.12515,0.717315 0.0398,0.122754 0.0777,0.291312 0.18023,0.376296 0.0417,-0.103682 -0.0145,-0.183586 -0.047,-0.282222 -0.0379,-0.115088 -0.0537,-0.232834 -0.067,-0.352778 -0.0403,-0.364314 0.0738,-0.730379 0.0787,-1.093611 h 0.0118 c 0,0.812471 0.0414,1.647025 0.74084,2.184282 0.11879,0.09124 0.25496,0.194122 0.39981,0.238125 -0.18271,-0.426402 -0.58668,-0.742962 -0.65331,-1.222963 -0.0223,-0.160667 -0.0346,-0.519712 0.23067,-0.453696 0.0369,0.0092 0.0725,0.02736 0.10514,0.04664 0.13821,0.08168 0.24228,0.227788 0.27925,0.38354 0.0292,0.123213 -0.009,0.274661 0.12057,0.352777 0,-0.204987 -0.0718,-0.549557 0.0477,-0.728239 0.12338,-0.184408 0.38507,-0.08334 0.47538,0.06972 0.15187,0.257387 0.0786,0.548899 0.0531,0.823148 0.52916,-0.127741 0.016,-0.958944 0.57621,-1.093611 -0.23379,0.336491 0.1158,0.615291 0.16744,0.940741 0.0261,0.164641 -0.10439,0.279682 -0.12041,0.435092 0.19183,-0.02634 0.42503,-0.384904 0.37017,-0.576203 -0.0486,-0.169416 -0.19914,-0.233492 -0.11249,-0.435093 0.0474,-0.110255 0.14902,-0.212337 0.27149,-0.23074 0.0664,-0.01 0.16285,0.01833 0.1833,0.09037 0.0362,0.127329 -0.0247,0.267335 0.0284,0.399074 0.22166,-0.128294 0.0198,-0.593572 0.34101,-0.664728 0.20129,-0.04459 0.2654,0.225178 0.34174,0.347228 0.0249,0.03984 0.10032,0.141428 0.15782,0.119721 0.0576,-0.02174 0.0398,-0.155105 0.0421,-0.202036 0.008,-0.176695 0.0488,-0.36489 0.25801,-0.376296 -0.0159,0.157832 -0.0997,0.314278 -0.16129,0.458611 -0.109,0.255411 -0.24265,0.58888 -0.2375,0.870185 0.008,0.450003 0.32296,0.746713 0.47521,1.140648 0.045,0.116487 0.052,0.254059 0.0764,0.376296 0.0604,0.302096 0.13959,0.618749 0.34494,0.858426 0.14782,0.172532 0.36925,0.437551 0.58013,0.199578 0.0475,-0.0536 0.0864,-0.115946 0.12501,-0.176059 0.0762,-0.118604 0.15044,-0.241935 0.21992,-0.364537 h 0.0118 c 0.0901,0.08668 0.22307,0.149989 0.32926,0.216746 0.36669,0.230517 0.74084,0.385434 1.16417,0.201378 0.29225,-0.127059 0.52373,-0.389349 0.84667,-0.447652 0.1221,-0.02204 0.22127,0.0064 0.34101,0.01916 0.14695,0.01566 0.2616,0.0011 0.39982,0.07237 0.1862,0.09598 0.3365,0.24859 0.52917,0.333892 0.10783,0.04774 0.21895,0.03527 0.32926,0.06483 0.15448,0.04139 0.28924,0.143886 0.39949,0.256634 0.0624,0.06386 0.11682,0.13482 0.16239,0.211631 0.0325,0.05474 0.0596,0.114571 0.0756,0.176389 0.0499,0.193804 -0.0613,0.315348 -0.22588,0.396852 -0.25687,0.127235 -0.54841,0.0539 -0.82315,0.06208 -0.12613,0.0038 -0.25468,0.09363 -0.37629,0.06121 -0.37015,-0.0987 -0.61279,-0.46522 -0.71686,-0.814117 -0.0215,-0.07206 0.0276,-0.145627 10e-4,-0.210597 -0.0383,-0.09426 -0.28085,-0.09015 -0.30891,0.01142 -0.0185,0.06704 0.0789,0.09378 0.11369,0.131763 0.0564,0.06158 0.0798,0.166452 0.10712,0.243805 0.0485,0.137065 0.10199,0.282422 0.18983,0.399814 0.32884,0.439479 0.86844,0.351191 1.33789,0.351191 0.12788,0 0.26953,0.04791 0.39313,0.03311 0.20205,-0.02419 0.32304,-0.192053 0.44393,-0.337268 0.0471,-0.05658 0.11273,-0.115534 0.13334,-0.188148 0.0971,-0.342147 -0.21599,-0.59463 -0.47143,-0.747889 -0.20892,-0.12533 -0.43237,-0.261537 -0.65852,-0.352013 -0.19928,-0.07973 -0.40907,-0.127071 -0.61148,-0.197744 -0.10233,-0.03572 -0.20151,-0.07805 -0.29398,-0.134843 -0.0551,-0.03384 -0.11174,-0.09072 -0.17639,-0.103705 -0.136,-0.02734 -0.32789,0.04454 -0.45861,0.0799 -0.24246,0.06559 -0.48026,0.164183 -0.6938,0.297239 -0.1587,0.09888 -0.2993,0.243475 -0.49389,0.262996 -0.32031,0.03214 -0.66904,-0.215148 -0.85659,-0.456271 -0.0856,-0.110067 0.004,-0.310927 0.052,-0.423322 0.14963,-0.34858 0.48117,-0.62016 0.57921,-0.987778 0.13804,-0.517666 -0.0464,-1.041623 -0.24519,-1.516944 -0.0697,-0.166664 -0.16193,-0.33167 -0.21145,-0.505648 0.074,0 0.15276,-0.0075 0.22343,0.01887 0.13484,0.05032 0.20367,0.189195 0.23159,0.322145 0.0525,0.249814 -0.0141,0.512516 0.0859,0.752593 h 0.0118 c 0.0575,-0.191511 -0.0212,-0.444959 0.0736,-0.623229 0.0705,-0.132692 0.24904,-0.207081 0.31744,-0.03529 0.0783,0.196592 0.0684,0.44991 0.0793,0.658519 0.0852,-0.05104 0.0659,-0.16102 0.0719,-0.246945 0.0149,-0.212925 -0.0506,-0.697265 0.24559,-0.748135 0.0665,-0.01142 0.13841,0.0093 0.19991,0.03334 0.37852,0.148226 0.27827,0.505825 0.18984,0.808872 -0.0175,0.06007 -0.12584,0.292935 -0.0555,0.335433 0.0995,0.06015 0.18435,-0.117122 0.21131,-0.182562 0.0771,-0.187219 0.12314,-0.386809 0.22275,-0.564445 0.0403,-0.07181 0.10591,-0.160513 0.19597,-0.163053 0.45726,-0.01292 0.39531,0.562833 0.1857,0.798042 -0.0547,0.06138 -0.23625,0.145121 -0.22868,0.234832 0.0101,0.120097 0.16889,-0.0042 0.20761,-0.03504 0.14784,-0.117663 0.33735,-0.298967 0.39981,-0.482 0.0699,0.0127 0.15488,0.02434 0.22343,-3.41e-4 0.33881,-0.122014 0.21606,-0.714669 0.65852,-0.704732 0.26599,0.006 0.25366,0.368159 0.22242,0.552203 -0.0293,0.172449 -0.0553,0.366054 -0.11908,0.529166 -0.12167,0.310986 -0.35265,0.566526 -0.58547,0.79963 -0.0886,0.08869 -0.20279,0.17606 -0.25287,0.293982 -0.0155,0.03645 -0.0409,0.09719 -0.008,0.131139 0.0803,0.08155 0.3131,-0.08574 0.378,-0.133244 0.33292,-0.243664 0.65928,-0.484258 0.90673,-0.821044 0.55906,-0.760918 0.85281,-2.021075 0.26402,-2.84574 -0.19524,-0.273462 -0.455,-0.481789 -0.73566,-0.662023 -0.15615,-0.100283 -0.35676,-0.113159 -0.44222,-0.302237 -0.0831,-0.183914 0.0109,-0.395628 0.0542,-0.576203 -0.19183,0.08809 -0.26295,0.339231 -0.34483,0.517407 -0.0958,0.208421 -0.26729,0.433635 -0.46656,0.552685 0.008,-0.144603 0.092,-0.286914 0.13718,-0.423333 0.0142,-0.04276 0.0515,-0.117157 0.0183,-0.158491 -0.0721,-0.08969 -0.16148,0.05646 -0.18554,0.111454 -0.0759,0.173484 -0.11398,0.370887 -0.22137,0.529167 -0.0769,0.113406 -0.22163,0.220356 -0.33653,0.293981 l 0.28222,-0.611481 c -0.1691,0.0395 -0.26384,0.277483 -0.3469,0.411574 -0.0906,0.146261 -0.22572,0.267805 -0.3469,0.38802 -0.0436,0.04327 -0.34885,0.30928 -0.28484,0.09426 0.007,-0.02404 0.0171,-0.04733 0.0261,-0.07071 -0.12757,0.09305 -0.21995,0.232915 -0.34102,0.335609 -0.20431,0.173308 -0.38988,0.225566 -0.64676,0.255976 -0.0891,0.01055 -0.1811,0.03751 -0.27046,0.0199 v -0.02352 c 0.36853,-0.141711 0.74712,-0.382976 0.92605,-0.740834 0.0607,-0.121367 0.11111,-0.307222 0.27339,-0.223426 -0.006,-0.448345 -0.21166,-0.865234 -0.21166,-1.317037 l 0.15287,0.152871 c 0.0358,-0.147261 -0.0807,-0.308763 -0.14112,-0.435093 0.1279,-0.06672 0.0716,-0.199084 0.007,-0.293981 -0.12787,-0.188548 -0.4427,-0.299144 -0.4894,-0.529167 0.15533,0.02594 0.23904,0.162454 0.36453,0.24103 0.0446,0.02793 0.11846,0.07337 0.17385,0.05912 0.0872,-0.02242 -0.004,-0.168463 -0.0307,-0.206046 -0.0513,-0.0725 -0.12911,-0.155163 -0.21373,-0.187466 -0.1054,-0.04024 -0.19621,-0.02382 -0.27909,-0.118674 -0.14178,-0.162231 -0.12932,-0.426814 -0.19565,-0.622876 -0.0837,-0.247439 -0.34464,-0.394676 -0.59536,-0.435093 m -0.70555,4.621389 v -0.01176 l 0.16463,-0.152871 c -0.13027,0.0077 -0.18135,0.121062 -0.29468,0.152647 -0.2765,0.07708 -0.65722,-0.0099 -0.89301,-0.16303 -0.43915,-0.285127 -0.57678,-0.875959 -0.60041,-1.36545 -0.006,-0.132633 -0.0379,-0.292535 -0.005,-0.423333 0.0473,-0.189983 0.23775,-0.379448 0.33145,-0.552686 0.0636,-0.11758 0.0891,-0.321157 0.17548,-0.416536 0.0749,-0.0827 0.22338,-0.136666 0.32222,-0.186114 0.29223,-0.146203 0.63098,-0.300108 0.96426,-0.302777 0.52271,-0.0042 1.25799,0.219522 1.54481,0.693761 0.11269,0.186337 0.0773,0.373862 0.10648,0.576204 0.0686,0.475979 0.0556,0.944303 -0.25556,1.340555 -0.1146,0.145909 -0.26018,0.246039 -0.39451,0.370323 -0.11496,0.106339 -0.1688,0.229823 -0.31918,0.302318 -0.2489,0.119968 -0.57401,0.138583 -0.84667,0.138748 m -1.45815,-2.434167 c -0.0239,0.08918 -0.10376,0.158797 -0.17639,0.211667 0.0351,-0.08581 0.10208,-0.157539 0.17639,-0.211667 m 1.94028,0.113324 c -0.0447,0.0035 -0.0898,0.0229 -0.12935,0.04303 -0.30265,0.154164 -0.17579,0.48173 -0.0943,0.725594 0.0245,0.07345 -0.009,0.167463 0.0447,0.231034 0.0376,0.04451 0.0937,0.03204 0.14363,0.04704 0.0949,0.02852 0.1258,0.08111 0.2352,0.07335 0.31978,-0.02268 0.64855,-0.310938 0.55796,-0.657166 -0.0247,-0.09429 -0.0936,-0.140276 -0.14993,-0.213019 -0.044,-0.0568 -0.066,-0.120826 -0.12614,-0.165194 -0.11351,-0.08375 -0.34507,-0.09543 -0.4818,-0.08467 m -1.17593,1.133158 h -0.0588 c 0.0419,-0.04219 0.0917,-0.08531 0.11559,-0.141111 0.0608,-0.141711 -0.11275,-0.297251 -0.17439,-0.411574 -0.096,0.06928 -0.26024,0.166299 -0.27046,-0.03528 -0.44148,0.0871 -0.43826,0.685565 0.0235,0.737494 0.068,0.0076 0.13878,-0.02265 0.1999,-0.04887 0.0598,-0.02567 0.12048,-0.05206 0.16463,-0.100659 m -2.75558,-0.145027 -0.004,0.0078 0.004,-0.0078 m 5.35438,0.180305 c 0.0347,0.157868 -0.0883,0.421992 -0.21167,0.517407 0.034,-0.160291 0.0867,-0.403837 0.21167,-0.517407 m -0.28222,0.399814 c -0.006,0.118816 -0.0599,0.285974 -0.16463,0.352778 0.0372,-0.113253 0.0813,-0.265642 0.16463,-0.352778 m -0.23519,0.211667 c 0.0499,0.206551 -0.19032,0.355024 -0.36454,0.376296 0.0714,-0.119309 0.24257,-0.309609 0.36454,-0.376296 m -3.15148,0.02352 0.24694,0.270463 c -0.0898,-0.0442 -0.24397,-0.160314 -0.24694,-0.270463 m 2.88102,2.351851 c 0.13871,-0.0812 0.17354,0.278189 0.17607,0.364537 0.008,0.276155 -0.0774,0.579908 -0.22727,0.811389 -0.0547,0.08437 -0.11924,0.191335 -0.21926,0.223426 -0.0382,-0.210185 0.0118,-0.434269 0.0118,-0.646759 -1e-5,-0.146015 -0.0355,-0.289219 -0.0457,-0.435093 -0.0162,-0.231963 -0.0171,-0.464608 -0.0625,-0.693796 -0.026,-0.13148 -0.0767,-0.249731 -0.11801,-0.376296 -0.028,-0.08587 -0.0423,-0.174966 -0.11481,-0.235185 -0.0434,0.222355 0.0486,0.351378 0.11042,0.552685 0.0294,0.09585 0.0362,0.206528 0.0509,0.305741 0.0898,0.606566 0.13225,1.213908 0.0369,1.822685 -0.0506,0.323215 -0.2325,0.611775 -0.40634,0.881944 -0.0292,0.04544 -0.13466,0.270804 -0.20036,0.234468 -0.0651,-0.03601 -0.0606,-0.170933 -0.0685,-0.234468 -0.0217,-0.174907 -0.003,-0.355588 -0.0383,-0.529166 -0.02,-0.09948 -0.0981,-0.187631 -0.0641,-0.293982 0.0408,-0.1276 0.19826,-0.167581 0.2266,-0.305741 -0.18442,0.07462 -0.48196,-0.08302 -0.48213,0.199908 0.0941,-0.02527 0.17253,-0.02599 0.20855,0.08233 0.0476,0.143181 -0.0201,0.290395 -0.006,0.435081 0.0239,0.250613 0.11528,0.473404 0.11528,0.729074 -0.16382,-0.01188 -0.33416,-0.217323 -0.40741,-0.352778 -0.19138,-0.353906 -0.29805,-0.787094 -0.31022,-1.187685 -0.003,-0.08737 -0.0383,-0.171285 -0.0232,-0.258703 l 0.14111,0.0588 c -0.0491,-0.161808 -0.11114,-0.298109 -0.12705,-0.470371 -0.0207,-0.223837 0.0261,-0.447345 0.0327,-0.670277 0.005,-0.158233 -0.0449,-0.311127 -0.0135,-0.470371 0.031,-0.157668 0.12348,-0.284997 0.16846,-0.435092 0.0392,-0.130728 0.0163,-0.260303 0.0848,-0.388056 0.16214,-0.302472 0.67078,-0.423827 0.94834,-0.205105 0.22662,0.1786 0.32741,0.458282 0.41549,0.722513 0.0185,0.05557 0.0311,0.125377 0.0658,0.173378 0.041,0.05683 0.0934,0.0836 0.11452,0.155881 0.0412,0.140758 -0.005,0.292829 0.0275,0.435092 m -6.49504,-1.415027 -0.004,0.0078 0.004,-0.0078 m -0.008,0.03919 v 0.03528 h -0.0118 l 0.0118,-0.03528 m -0.0118,0.04704 v 0.04704 h -0.0118 l 0.0118,-0.04704 m 4.64492,0.388056 c -1.2e-4,0.203917 -0.0391,0.503931 -0.11533,0.693796 -0.027,0.06733 -0.0815,0.119157 -0.1081,0.188148 0.0425,0.01339 0.10215,0.01948 0.13398,0.05313 0.0515,0.05441 0.0189,0.237208 0.0189,0.311409 2e-5,0.299473 -0.0818,0.576404 0.0118,0.870185 -0.12467,-0.0592 -0.21041,-0.199013 -0.27291,-0.3175 -0.20293,-0.384645 -0.0412,-0.981463 0.10465,-1.364074 0.0518,-0.135866 0.11767,-0.336855 0.22706,-0.435092 m 0.6611,1.785584 c -0.0696,0.03317 0.008,0.130023 0.0671,0.104705 0.0999,-0.04276 0.0177,-0.145098 -0.0671,-0.104705 m 3.17241,1.31886 v 0.01176 l -0.0823,0.01176 0.0823,-0.02352 m 0.16463,0.07056 v 0.01176 h -0.10583 l 0.10583,-0.01176 m -0.50564,0.04704 v 0.01176 l -0.0823,0.01176 0.0823,-0.02352 m -0.35278,0.117592 -0.0118,0.01176 0.0118,-0.01176 m -0.30574,0.117593 v 0.01176 l -0.0706,0.03528 0.0706,-0.04704 m 0.15287,0.08231 v 0.01176 l -0.14111,0.04704 0.14111,-0.0588 m -0.15287,0.0588 -0.0118,0.01176 0.0118,-0.01176 m 2.26953,0.09407 -0.0353,-0.02352 0.0353,0.02352 m -2.31657,0 v 0.01176 l -0.15287,0.03528 0.15287,-0.04704 m 3.08093,0.3175 0.17639,0.188148 c -0.0645,-0.03853 -0.16555,-0.109032 -0.17639,-0.188148 m 0.0823,0.223426 0.0941,0.188148 h -0.0118 l -0.0823,-0.188148 m 0.0823,0.270463 v 0.09407 h -0.0118 l 0.0118,-0.09407 m -2.18723,0.105833 0.047,0.08232 -0.047,-0.08232 m 1.91676,0.3175 -0.16463,0.09407 0.16463,-0.09407 m -0.91722,0.01176 v 0.01176 h -0.047 l 0.047,-0.01176 m 0.64676,0.04704 v 0.01176 l -0.047,0.01176 z"
       id="path179"
       inkscape:export-filename="devil.svg"
       inkscape:export-xdpi="1112.3539"
       inkscape:export-ydpi="1112.3539" /></g></svg>
